<svg xmlns="http://www.w3.org/2000/svg" viewBox="0 0 64 64" role="img" aria-labelledby="title">
  <title id="title">Taskly</title>
  <defs><linearGradient id="g" x1="8" y1="6" x2="56" y2="58" gradientUnits="userSpaceOnUse"><stop stop-color="#22D3EE"/><stop offset=".52" stop-color="#0EA5E9"/><stop offset="1" stop-color="#2563EB"/></linearGradient></defs>
  <path fill="url(#g)" d="M25.5 4.5a13 13 0 0 1 13 0l14 8.1a13 13 0 0 1 6.5 11.3v16.2a13 13 0 0 1-6.5 11.3l-14 8.1a13 13 0 0 1-13 0l-14-8.1A13 13 0 0 1 5 40.1V23.9a13 13 0 0 1 6.5-11.3l14-8.1Z"/>
  <path fill="#fff" d="M20 20.2a5 5 0 0 1 6.8-1.8l5.2 3 5.2-3a5 5 0 1 1 5 8.6l-10.2 5.9L21.8 27a5 5 0 0 1-1.8-6.8Zm0 16a5 5 0 0 1 6.8-1.8l5.2 3 5.2-3a5 5 0 1 1 5 8.6L32 48.9 21.8 43a5 5 0 0 1-1.8-6.8Z"/>
</svg>
